<svg xmlns="http://www.w3.org/2000/svg" viewBox="0 0 24 24" width="24" height="24">
  <path fill="#E24329" d="M12 21.35L1.755 13.87l2.07-6.37h3.09L12 21.35z"/>
  <path fill="#FC6D26" d="M12 21.35l5.085-13.85h3.09l2.07 6.37L12 21.35z"/>
  <path fill="#FCA326" d="M1.755 13.87l-1.3 4.005a.91.91 0 0 0 .33 1.02L12 21.35 1.755 13.87z"/>
  <path fill="#E24329" d="M1.755 13.87h5.16L4.84 7.5H1.755z"/>
  <path fill="#FC6D26" d="M12 21.35L6.915 7.5h-5.16L12 21.35z"/>
  <path fill="#FCA326" d="M22.245 13.87l1.3 4.005a.91.91 0 0 1-.33 1.02L12 21.35l10.245-7.48z"/>
  <path fill="#E24329" d="M22.245 13.87h-5.16L19.16 7.5h3.085z"/>
  <path fill="#FC6D26" d="M12 21.35l5.085-13.85h5.16L12 21.35z"/>
  <circle cx="19" cy="5" r="4.5" fill="#E5423A"/>
</svg>
